<svg xmlns="http://www.w3.org/2000/svg" viewBox="0 0 64 64">
  <!-- White background -->
  <rect width="64" height="64" fill="#ffffff"/>
  <!-- Shield - left/dark half -->
  <path fill="#1e3a8a" d="M32 8 L8 15 v18 c0 14 24 24 24 24 V8 Z"/>
  <!-- Shield - right/light half -->
  <path fill="#3b82f6" d="M32 8 L56 15 v18 c0 14 -24 24 -24 24 V8 Z"/>
  <!-- 5-point star (facets for subtle 3D) -->
  <path fill="#1e3a8a" d="M32 20 L35 30 L46 30 L37 36 L40 46 L32 40 Z"/>
  <path fill="#60a5fa" d="M32 20 L29 30 L18 30 L27 36 L24 46 L32 40 Z"/>
  <!-- Airplane going up-right -->
  <path fill="#1e3a8a" d="M40 12 l12 -5 l3 2 l-9 6 l3 4 l-2 2 l-4 -3 l-7 4 z"/>
</svg>
