<svg xmlns="http://www.w3.org/2000/svg" viewBox="0 0 64 64">
  <!-- Shield - left/dark half -->
  <path fill="#1e3a8a" d="M32 4 L6 12 v20 c0 16 26 28 26 28 V4 Z"/>
  <!-- Shield - right/light half -->
  <path fill="#3b82f6" d="M32 4 L58 12 v20 c0 16 -26 28 -26 28 V4 Z"/>
  <!-- 5-point star (facets for subtle 3D) -->
  <path fill="#1e3a8a" d="M32 18 L36 30 L48 30 L38 37 L42 49 L32 42 Z"/>
  <path fill="#60a5fa" d="M32 18 L28 30 L16 30 L26 37 L22 49 L32 42 Z"/>
  <!-- Airplane going up-right -->
  <path fill="#1e3a8a" d="M40 10 l14 -6 l3 2 l-10 7 l3 4 l-2 2 l-4 -3 l-8 4 z"/>
</svg>
